<svg xmlns="http://www.w3.org/2000/svg" width="59.869" height="56.241" viewBox="0 0 59.869 56.241">
  <path id="path3653" d="M130.044,78.468a5.674,5.674,0,0,0-5.584,5.591v45.208a.566.566,0,0,0,.156.455v.754l.15.3v.306l.15.149c0,.151,0,.148.15.3v.156c0,.151.15.148.15.3a7.937,7.937,0,0,0,1.508,1.664,5.142,5.142,0,0,0,3.322,1.06,5.417,5.417,0,0,0,5.428-5.448v-45.2a5.793,5.793,0,0,0-2.867-4.993c-.3-.151-.6-.148-.9-.3-.151,0-.454-.15-.6-.15C130.8,78.617,130.344,78.468,130.044,78.468Zm-51.58,2.139a2.964,2.964,0,0,0-2.86,3v45.059a.545.545,0,0,0,.15.449v.156a.546.546,0,0,0,.15.449c0,.151.156.3.156.455v.15c.151.151.3.155.3.306h.15a1.511,1.511,0,0,0,.754.6,3.182,3.182,0,0,0,2.867,0L119.941,108.7a2.983,2.983,0,0,0,0-5.142L80.278,81.185l-.3-.15A2.8,2.8,0,0,0,78.464,80.606Z" transform="translate(-75.604 -78.468)"/>
</svg>
