<svg id="Component_1_1" data-name="Component 1 – 1" xmlns="http://www.w3.org/2000/svg" width="149.292" height="149.83" viewBox="0 0 149.292 149.83">
  <path id="path3651" d="M289.911,205.533a74.647,74.647,0,1,1-74.646-74.84A74.753,74.753,0,0,1,289.911,205.533Z" transform="translate(-140.618 -130.694)"/>
  <g id="Polygon_2" data-name="Polygon 2" transform="matrix(0.017, 1, -1, 0.017, 119.989, 33.395)" fill="#fff">
    <path d="M 75.02152252197266 69.5 L 6.978479862213135 69.5 C 5.708600044250488 69.5 4.573440074920654 68.84224700927734 3.941940069198608 67.74051666259766 C 3.31043004989624 66.63878631591797 3.316580057144165 65.32685852050781 3.958379983901978 64.23108673095703 L 37.97991180419922 6.145566463470459 C 38.61479949951172 5.06161642074585 39.74380111694336 4.41447639465332 41 4.41447639465332 C 42.25619888305664 4.41447639465332 43.38520050048828 5.06161642074585 44.02008819580078 6.145566463470459 L 78.04161834716797 64.23108673095703 C 78.68341827392578 65.32685852050781 78.68956756591797 66.63878631591797 78.05805969238281 67.74051666259766 C 77.42655944824219 68.84224700927734 76.29139709472656 69.5 75.02152252197266 69.5 Z" stroke="none"/>
    <path d="M 41 4.914474487304688 C 39.92325592041016 4.914474487304688 38.95553207397461 5.469161987304688 38.41135406494141 6.398262023925781 L 4.38983154296875 64.48377990722656 C 3.839714050292969 65.42301940917969 3.834442138671875 66.54753112792969 4.375732421875 67.49187469482422 C 4.917007446289062 68.43620300292969 5.8900146484375 68.99999237060547 6.978477478027344 68.99999237060547 L 75.02152252197266 68.99999237060547 C 76.1099853515625 68.99999237060547 77.08299255371094 68.43620300292969 77.624267578125 67.49187469482422 C 78.16555786132812 66.54753112792969 78.16028594970703 65.42301940917969 77.61016845703125 64.48377990722656 L 43.58864593505859 6.398262023925781 C 43.04446792602539 5.469161987304688 42.07674407958984 4.914474487304688 41 4.914474487304688 M 41 3.914466857910156 C 42.33951187133789 3.914466857910156 43.67902374267578 4.573936462402344 44.45153427124023 5.892860412597656 L 78.47305297851562 63.97838592529297 C 80.034912109375 66.64497375488281 78.11184692382812 69.99999237060547 75.02152252197266 69.99999237060547 L 6.978477478027344 69.99999237060547 C 3.888153076171875 69.99999237060547 1.965087890625 66.64497375488281 3.526947021484375 63.97838592529297 L 37.54846572875977 5.892860412597656 C 38.32097625732422 4.573936462402344 39.66048812866211 3.914466857910156 41 3.914466857910156 Z" stroke="none" fill="#707070"/>
  </g>
</svg>
