<svg xmlns="http://www.w3.org/2000/svg" width="59.868" height="56.241" viewBox="0 0 59.868 56.241">
  <path id="path3657" d="M50.094,78.468a5.541,5.541,0,0,0-5.428,5.591v45.358a4.9,4.9,0,0,0,2.113,4.232,5.125,5.125,0,0,0,3.316,1.06,5.546,5.546,0,0,0,5.584-5.441V84.059a5.916,5.916,0,0,0-3.017-4.986c-.3-.15-.6-.157-.9-.306h-.007c-.149,0-.3-.15-.6-.15S50.4,78.468,50.094,78.468Zm51.274,3.27a3.313,3.313,0,0,0-1.359.358L60.2,104.621a2.745,2.745,0,0,0-1.508,2.873H58.7a2.974,2.974,0,0,0,1.5,2.269L100.01,132.29a3.03,3.03,0,0,0,4.525-2.568V84.663a2.867,2.867,0,0,0-1.359-2.419l-.15-.15a.516.516,0,0,1-.3-.15A3.786,3.786,0,0,0,101.368,81.738Z" transform="translate(-44.666 -78.468)"/>
</svg>
